<svg id="clap" xmlns="http://www.w3.org/2000/svg" width="26.004" height="26" viewBox="0 0 26.004 26">
  <path id="Path_213" data-name="Path 213" d="M0,9.517c.12,2.039.109,3.73.1,5.222-.023,3.956-.06,6.533,2.711,9.315a6.819,6.819,0,0,0,9.659,0h0l7.513-7.541a2.29,2.29,0,0,0,0-3.232,2.267,2.267,0,0,0-.629-.446l1.245-1.25a2.294,2.294,0,0,0,0-3.232A2.264,2.264,0,0,0,19.9,7.87a2.291,2.291,0,0,0-.367-2.751,2.264,2.264,0,0,0-.666-.463,2.281,2.281,0,0,0-3.045-3.219,2.276,2.276,0,0,0-3.7-.71C12.073.773,8.1,4.744,5.56,7.292l-.39-2.77a2.276,2.276,0,0,0-4.552,0c0,.021,0,.042,0,.063.061,1.036.094,2.079.1,3.253A2.267,2.267,0,0,0,0,9.517Zm18.91,5.918L11.4,22.976a5.3,5.3,0,0,1-7.513,0c-2.3-2.31-2.29-4.288-2.266-8.228.009-1.506.019-3.212-.1-5.284a.76.76,0,0,1,1.294-.494c.257.258.159.37.23.646v0l.609,4.324a.759.759,0,0,0,1.288.432L12.5,6.8a.76.76,0,0,1,1.051,1.1h0l-3.219,3.232A.76.76,0,0,0,11.4,12.2l4.293-4.309a.76.76,0,0,1,1.073,1.077L12.473,13.28a.76.76,0,0,0,1.073,1.077l3.22-3.232A.76.76,0,0,1,17.839,12.2l-3.22,3.232a.76.76,0,1,0,1.073,1.077l2.15-2.159a.76.76,0,0,1,1.069,1.081ZM18.456,6.2a.763.763,0,0,1,0,1.077l-.171.172a2.3,2.3,0,0,0-1.073-1.077l.172-.172a.758.758,0,0,1,1.073,0Zm1.073,4.309-.172.173A2.275,2.275,0,0,0,18.284,9.6l.172-.173a.76.76,0,0,1,1.073,1.077ZM17.484,2.883a.763.763,0,0,1,0,1.075L15.065,6.369A2.286,2.286,0,0,0,14,5.3l2.414-2.413a.758.758,0,0,1,1.073,0ZM5.558,9.448c2.267-2.276,7.578-7.589,7.633-7.643a.76.76,0,0,1,1.118,1.028c-7.1,7.11,3.337-3.366-9.365,9.387l-.381-2.7a.756.756,0,0,0,1-.068ZM2.136,4.536a.76.76,0,0,1,1.294-.494c.257.259.159.37.23.646l.5,3.532a2.269,2.269,0,0,0-1.925-.994c-.014-.948-.046-1.821-.1-2.69Z" transform="translate(0 -0.059)" fill="#91929a"/>
  <path id="Path_214" data-name="Path 214" d="M454.346,92.042H452.8a.775.775,0,0,0,0,1.55h1.55a.775.775,0,0,0,0-1.55Z" transform="translate(-429.116 -87.375)" fill="#91929a"/>
  <path id="Path_215" data-name="Path 215" d="M422.344,2.915l1.55-1.55a.775.775,0,1,0-1.1-1.1l-1.55,1.55a.775.775,0,0,0,1.1,1.1Z" transform="translate(-399.719 -0.042)" fill="#91929a"/>
</svg>
