<svg xmlns="http://www.w3.org/2000/svg" width="26" height="26" viewBox="0 0 26 26"><defs><style>.a{fill:#fff;}</style></defs><path class="a" d="M173.006,257.179a1.179,1.179,0,1,0-1.179,1.179A1.181,1.181,0,0,0,173.006,257.179Zm0,0" transform="translate(-161.852 -242.803)"/><path class="a" d="M195.937,341.4a4.415,4.415,0,0,1-4.732,0,.305.305,0,1,0-.432.432,4.952,4.952,0,0,0,5.6,0,.309.309,0,0,0,0-.432A.3.3,0,0,0,195.937,341.4Zm0,0" transform="translate(-180.568 -323.832)"/><path class="a" d="M289.179,256a1.179,1.179,0,1,0,1.179,1.179A1.181,1.181,0,0,0,289.179,256Zm0,0" transform="translate(-273.154 -242.803)"/><path class="a" d="M24.125,0H1.875A1.875,1.875,0,0,0,0,1.875v22.25A1.875,1.875,0,0,0,1.875,26h22.25A1.875,1.875,0,0,0,26,24.125V1.875A1.875,1.875,0,0,0,24.125,0ZM20.543,14.734a3.772,3.772,0,0,1,.044.57c0,2.917-3.4,5.281-7.584,5.281S5.418,18.221,5.418,15.3a3.814,3.814,0,0,1,.044-.575,1.895,1.895,0,1,1,2.085-3.1,9.3,9.3,0,0,1,5.161-1.607c0-.026.946-4.534.946-4.534a.334.334,0,0,1,.146-.213.338.338,0,0,1,.255-.047l3.151.671a1.354,1.354,0,1,1-.138.663l-2.821-.6-.863,4.064a9.275,9.275,0,0,1,5.07,1.609A1.894,1.894,0,0,1,21.666,13,1.9,1.9,0,0,1,20.543,14.734Zm0,0"/></svg>