<svg xmlns="http://www.w3.org/2000/svg" width="26" height="26" viewBox="0 0 26 26"><defs><style>.a{fill:#fff;}</style></defs><path class="a" d="M141.1,124.469c-3.875,0-7.026,2.889-7.027,6.44a6.039,6.039,0,0,0,1.074,3.427l.167.244-.71,2.377,2.659-.639.257.14a7.5,7.5,0,0,0,3.575.9h0c3.872,0,7.023-2.889,7.024-6.44a6.144,6.144,0,0,0-2.055-4.556A7.309,7.309,0,0,0,141.1,124.469Zm4.132,9.209a2.183,2.183,0,0,1-1.425.921,3.15,3.15,0,0,1-1.33-.077c-.307-.089-.7-.208-1.2-.408a9.143,9.143,0,0,1-3.607-2.924,3.612,3.612,0,0,1-.862-2,2.1,2.1,0,0,1,.739-1.615.809.809,0,0,1,.563-.242c.141,0,.282,0,.4.007s.3-.045.475.332.6,1.341.651,1.437a.331.331,0,0,1,.018.339,7.066,7.066,0,0,1-.528.662c-.093.107-.216.2-.093.4a5.574,5.574,0,0,0,2.873,2.3c.211.1.334.081.457-.048s.528-.565.669-.759.282-.161.475-.1,1.232.533,1.443.63.352.145.4.226A1.491,1.491,0,0,1,145.229,133.678Zm0,0" transform="translate(-127.843 -118.124)"/><path class="a" d="M24.125,0H1.875A1.875,1.875,0,0,0,0,1.875v22.25A1.875,1.875,0,0,0,1.875,26h22.25A1.875,1.875,0,0,0,26,24.125V1.875A1.875,1.875,0,0,0,24.125,0ZM13.276,20.569h0a7.778,7.778,0,0,1-3.718-.947L5.429,20.7l1.1-4.031a7.781,7.781,0,1,1,6.742,3.9Zm0,0"/></svg>