<svg xmlns="http://www.w3.org/2000/svg" width="26" height="26" viewBox="0 0 26 26"><defs><style>.a{fill:#fff;}</style></defs><path class="a" d="M224.113,213.285l4.554-2.623-4.554-2.623Zm0,0" transform="translate(-212.903 -197.662)"/><path class="a" d="M24.125,0H1.875A1.875,1.875,0,0,0,0,1.875v22.25A1.875,1.875,0,0,0,1.875,26h22.25A1.875,1.875,0,0,0,26,24.125V1.875A1.875,1.875,0,0,0,24.125,0Zm-3,13.013a21.456,21.456,0,0,1-.334,3.908,2.036,2.036,0,0,1-1.432,1.432A49.41,49.41,0,0,1,13,18.688a47.642,47.642,0,0,1-6.357-.348,2.036,2.036,0,0,1-1.432-1.432A21.362,21.362,0,0,1,4.877,13a21.442,21.442,0,0,1,.335-3.908A2.077,2.077,0,0,1,6.643,7.647,49.41,49.41,0,0,1,13,7.313a47.541,47.541,0,0,1,6.357.348,2.036,2.036,0,0,1,1.432,1.432A20.361,20.361,0,0,1,21.123,13.013Zm0,0"/></svg>